# xmcd
#
# Track frame offsets: 
#        150
#        15310
#        28069
#        50747
#        65068
#        79927
#        105225
#        119187
#        132561
#        149100
#        165050
#        184066
#        199514
#        221584
#        262747
#        276119
#
# Disc length: 3937 seconds
#
# Revision: 0
# Processed by: cddbd v1.5.2PL0 Copyright (c) Steve Scherf et al.
# Submitted via: ExactAudioCopy v1.3
#
DISCID=ea0f5f10
DTITLE=Breakout - Za siódmą górą
DYEAR=2016
DGENRE=Blues
TTITLE0=Gdybyś kochał hej (wersja 1) [Radio edit]
TTITLE1=Za siódmą górą [Radio edit]
TTITLE2=Czy mnie jeszcze pamiętasz [Radio edit]
TTITLE3=Gdybyś kochał, hej (wersja 2) [Radio edit]
TTITLE4=Powiedzieliśmy już wszystko [Radio edit]
TTITLE5=Gdzie chcesz iść [Radio edit]
TTITLE6=Gdybyś kochał, hej (wersja 3) [Radio edit]
TTITLE7=Za siódmą górą (Zgaduj zgadula-1968) [Live]
TTITLE8=Koło Birczy (Zgaduj zgadula-1968) [Live]
TTITLE9=Spokojnie śpj (Zgaduj zgadula-1968) [Live]
TTITLE10=Zaśpiewam Ci tak (Zgaduj zgadula-1968 [Live]
TTITLE11=Czy znasz ten zwyczaj (Zgaduj zgadula-1968) [Live]
TTITLE12=Gdybyś kochał, hej and bis (pole-1969) [Live]
TTITLE13=Na drugim brzegu tęczy and bis (pole-1969) [Live]
TTITLE14=Gdybyś kochał, hej (Sopot-1969) [Live]
TTITLE15=Na drugim brzegu tęczy (Sopot-1969) [Live]
EXTD=
EXTT0=
EXTT1=
EXTT2=
EXTT3=
EXTT4=
EXTT5=
EXTT6=
EXTT7=
EXTT8=
EXTT9=
EXTT10=
EXTT11=
EXTT12=
EXTT13=
EXTT14=
EXTT15=
PLAYORDER=
